<svg width="18" height="14" viewBox="0 0 18 14" fill="none" xmlns="http://www.w3.org/2000/svg">
<path fill-rule="evenodd" clip-rule="evenodd" d="M17.0328 1.62981C16.4253 1.90701 15.7726 2.09357 15.0877 2.17837C15.7868 1.74747 16.3239 1.06534 16.5767 0.252819C15.9222 0.651657 15.1973 0.941312 14.4257 1.0974C13.8081 0.421364 12.9276 0 11.9535 0C10.0832 0 8.56631 1.55825 8.56631 3.47957C8.56631 3.75253 8.59598 4.01807 8.65402 4.27274C5.83853 4.12699 3.3424 2.74099 1.67204 0.636817C1.38053 1.15093 1.2135 1.74826 1.2135 2.38588C1.2135 3.59299 1.81147 4.65793 2.72005 5.28243C2.16541 5.26387 1.64276 5.10752 1.18615 4.84649V4.89021C1.18615 6.57699 2.35476 7.98287 3.90258 8.30287C3.61882 8.38237 3.31957 8.42477 3.01181 8.42477C2.79357 8.42477 2.581 8.40357 2.37462 8.36249C2.80543 9.74531 4.05659 10.7513 5.53864 10.7794C4.37931 11.7122 2.91868 12.2687 1.33113 12.2687C1.05768 12.2687 0.788618 12.2528 0.523682 12.2202C2.02249 13.2077 3.80327 13.7838 5.71599 13.7838C11.946 13.7838 15.3531 8.48095 15.3531 3.88305C15.3531 3.73199 15.3498 3.58226 15.3433 3.43253C16.0053 2.94226 16.5798 2.32877 17.0338 1.63047" fill="#B6BAC7"/>
</svg>
